# xmcd CD database file
#
# Track frame offsets:
#	150
#	11874
#	28792
#	41151
#	57773
#	72787
#	84515
#	100513
#	115694
#	131915
#	151426
#	166700
#
# Disc length: 2478 seconds
#
# Revision: 0
# Processed by: cddbd v1.5.2PL0 Copyright (c) Steve Scherf et al.
# Submitted via: CDex 1.79
#
DISCID=9409ac0c
DTITLE=Sonny Burgess - All About The Ride
DYEAR=2012
DGENRE=Country
TTITLE0=All About The Ride 
TTITLE1=I Was That Close
TTITLE2=Little Bit Of You
TTITLE3=All These Things 
TTITLE4=Wishin That I Was 
TTITLE5=Girl Next Door 
TTITLE6=Too Many Horses 
TTITLE7=I'm Just Sayin' 
TTITLE8=That's What I'm Talking About 
TTITLE9=Dang Good Thang 
TTITLE10=Boney Knees and Pony Tails
TTITLE11=Listen To The Music 
EXTD=YEAR: 2012
EXTT0=
EXTT1=
EXTT2=
EXTT3=
EXTT4=
EXTT5=
EXTT6=
EXTT7=
EXTT8=
EXTT9=
EXTT10=
EXTT11=
PLAYORDER=
